<svg width="40" height="48" viewBox="0 0 40 48" fill="none" xmlns="http://www.w3.org/2000/svg">
<path d="M39.1617 37.4066C38.4435 39.0836 37.5934 40.6272 36.6085 42.0464C35.266 43.9812 34.1668 45.3204 33.3197 46.0641C32.0065 47.2848 30.5994 47.91 29.0928 47.9455C28.0111 47.9455 26.7067 47.6344 25.1883 47.0033C23.665 46.3752 22.265 46.0641 20.9849 46.0641C19.6424 46.0641 18.2026 46.3752 16.6625 47.0033C15.12 47.6344 13.8775 47.9633 12.9275 47.9959C11.4826 48.0581 10.0425 47.4152 8.60501 46.0641C7.68753 45.2552 6.53994 43.8686 5.16518 41.9042C3.69017 39.8065 2.4775 37.374 1.52748 34.6007C0.51004 31.6053 0 28.7046 0 25.8964C0 22.6796 0.687674 19.9052 2.06507 17.5802C3.14759 15.7127 4.58772 14.2396 6.39015 13.1581C8.19258 12.0767 10.1401 11.5256 12.2374 11.4903C13.385 11.4903 14.8899 11.8491 16.7601 12.5543C18.6249 13.2618 19.8224 13.6206 20.3474 13.6206C20.7399 13.6206 22.0701 13.2011 24.3251 12.3647C26.4576 11.589 28.2574 11.2678 29.7318 11.3943C33.7271 11.7202 36.7287 13.3122 38.7249 16.1803C35.1517 18.3686 33.3841 21.4337 33.4193 25.3658C33.4516 28.4285 34.5508 30.9771 36.7111 33.0008C37.6902 33.94 38.7835 34.6659 40 35.1815C39.7362 35.9548 39.4577 36.6955 39.1617 37.4066ZM29.9985 0.960273C29.9985 3.36082 29.1309 5.60221 27.4014 7.67681C25.3144 10.1431 22.79 11.5682 20.0525 11.3434C20.0176 11.0554 19.9974 10.7523 19.9974 10.4338C19.9974 8.12924 20.9899 5.66294 22.7525 3.64641C23.6324 2.62541 24.7516 1.77646 26.1088 1.09923C27.463 0.43211 28.744 0.063178 29.9487 0C29.9839 0.320916 29.9985 0.641852 29.9985 0.960242V0.960273Z" fill="black"/>
</svg>
