<svg width="38" height="37" viewBox="0 0 38 37" fill="none" xmlns="http://www.w3.org/2000/svg">
<path d="M2.59091 31.5932H8.63636V17.6458L0 11.4926V29.1319C0 30.4918 1.15943 31.5932 2.59091 31.5932Z" fill="white"/>
<path d="M29.3636 31.5932H35.4091C36.8406 31.5932 38 30.4918 38 29.1319V11.4926L29.3636 17.6459V31.5932Z" fill="white"/>
<path d="M29.3636 6.98026V17.6459L38 11.4926V8.21091C38 5.16915 34.3447 3.43189 31.7818 5.25735L29.3636 6.98026Z" fill="white"/>
<path fill-rule="evenodd" clip-rule="evenodd" d="M8.63636 17.6458V6.98024L19 14.3641L29.3636 6.98026V17.6459L19 25.0297L8.63636 17.6458Z" fill="white"/>
<path d="M0 8.21091V11.4926L8.63636 17.6458V6.98024L6.21818 5.25735C3.65534 3.43189 0 5.16915 0 8.21091Z" fill="white"/>
</svg>
